<?xml version="1.0" encoding="UTF-8" standalone="no"?>
<svg
   xmlns:dc="http://purl.org/dc/elements/1.1/"
   xmlns:cc="http://creativecommons.org/ns#"
   xmlns:rdf="http://www.w3.org/1999/02/22-rdf-syntax-ns#"
   xmlns:svg="http://www.w3.org/2000/svg"
   xmlns="http://www.w3.org/2000/svg"
   xmlns:sodipodi="http://sodipodi.sourceforge.net/DTD/sodipodi-0.dtd"
   xmlns:inkscape="http://www.inkscape.org/namespaces/inkscape"
   inkscape:version="1.0 (4035a4fb49, 2020-05-01)"
   id="svg3237"
   version="1.1"
   viewBox="0 0 154.99292 154.99292"
   height="154.99292mm"
   width="154.99292mm">
  <defs
     id="defs3231" />
  <sodipodi:namedview
     inkscape:window-maximized="1"
     inkscape:window-y="-8"
     inkscape:window-x="-8"
     inkscape:window-height="1017"
     inkscape:window-width="2560"
     fit-margin-bottom="0"
     fit-margin-right="0"
     fit-margin-left="0"
     fit-margin-top="0"
     showgrid="false"
     inkscape:document-rotation="0"
     inkscape:current-layer="layer1"
     inkscape:document-units="mm"
     inkscape:cy="-15.585657"
     inkscape:cx="584.4143"
     inkscape:zoom="0.35"
     inkscape:pageshadow="2"
     inkscape:pageopacity="0.0"
     borderopacity="1.0"
     bordercolor="#666666"
     pagecolor="#ffffff"
     id="base" />
  <metadata
     id="metadata3234">
    <rdf:RDF>
      <cc:Work
         rdf:about="">
        <dc:format>image/svg+xml</dc:format>
        <dc:type
           rdf:resource="http://purl.org/dc/dcmitype/StillImage" />
        <dc:title></dc:title>
      </cc:Work>
    </rdf:RDF>
  </metadata>
  <g
     transform="translate(48.79295,-152.29037)"
     id="layer1"
     inkscape:groupmode="layer"
     inkscape:label="Layer 1">
    <path
       style="fill:#ffffff;fill-opacity:1;stroke-width:1"
       d="m 4.1645385,280.64073 c -12.7381,-0.22329 -25.2172995,-3.75283 -36.0584995,-10.19858 -1.0335,-0.6145 -1.8587,-1.13762 -1.8339,-1.16251 0.024,-0.0249 0.5388,0.0126 1.1419,0.0833 0.6703,0.0786 2.5299,0.12722 4.7831,0.12522 3.1472,-0.003 3.9704,-0.0377 5.6272,-0.23793 7.6587,-0.926 14.6482995,-3.30279 20.9975995,-7.14005 2.13420003,-1.28983 5.1831,-3.45018 5.0875,-3.60486 -0.029,-0.0473 -0.6118,-0.11478 -1.2946,-0.1499 -2.15919997,-0.11109 -5.1829,-0.77665 -7.324,-1.61214 -6.8292995,-2.66483 -12.1244995,-7.94555 -14.7815995,-14.74093 -0.2637,-0.67447 -0.4604,-1.24536 -0.4372,-1.26866 0.024,-0.0233 0.5125,0.0307 1.0869,0.12006 1.5089,0.23465 4.3718,0.31161 5.9422,0.15974 1.7666,-0.17082 4.4238995,-0.67044 4.4238995,-0.83177 0,-0.0394 -0.3808,-0.15712 -0.8463,-0.26173 -2.6229995,-0.58955 -5.8235995,-1.98305 -8.2119995,-3.57541 -2.1736,-1.44911 -4.7432,-3.85152 -6.1988,-5.79556 -3.2448,-4.3334 -5.013,-9.20287 -5.2507,-14.45991 l -0.062,-1.37724 1.253,0.60187 c 1.7035,0.81825 3.0501,1.30538 4.9327,1.78445 1.7123,0.43571 3.9876,0.77002 4.8804,0.71706 l 0.555,-0.033 -1.1136,-0.82885 c -4.9336,-3.67237 -8.4965,-9.32032 -9.7364,-15.4347 -0.3658,-1.80394 -0.4708,-2.97195 -0.4692,-5.22361 0,-3.6011 0.5309,-6.28434 1.9087,-9.69029 0.4619,-1.14171 1.3999,-3.00815 1.5054,-2.99529 0.03,0.004 0.5754,0.62698 1.2126,1.38523 2.218,2.63926 5.776,6.14614 8.7423,8.61702 10.5390995,8.77862 23.6358995,14.49403 37.2803,16.26902 2.8411,0.3696 5.9289,0.58026 5.8158,0.39676 -0.136,-0.22077 -0.5098,-2.93247 -0.5866,-4.25677 -0.5446,-9.38163 4.0286,-18.22717 12.0513,-23.3098 2.6127,-1.65519 5.8916,-2.90211 9.2161,-3.50463 1.3957,-0.25296 1.7723,-0.27728 4.3711,-0.28223 2.5236,-0.005 2.9962,0.0219 4.1956,0.23743 3.6658,0.6586 6.872,1.90564 9.8132,3.81683 1.3619,0.88488 2.2321,1.56939 3.7275,2.93193 l 1.0943,0.99704 0.9597,-0.19184 c 2.4458,-0.48895 6.05,-1.62084 8.7853,-2.75906 1.6484,-0.68599 4.6306,-2.13837 5.7617,-2.80616 0.3477,-0.20521 0.6471,-0.35813 0.6656,-0.33987 0.081,0.0809 -1.0025,2.64722 -1.6129,3.81808 -2.0085,3.85266 -4.9795,7.16019 -8.5687,9.53944 -0.6196,0.41077 -0.9194,0.66569 -0.8089,0.68801 0.2229,0.0451 2.6729,-0.34141 4.3212,-0.68171 2.9864,-0.61653 6.926,-1.84754 9.3642,-2.92596 0.3419,-0.15126 0.6398,-0.25706 0.6617,-0.2351 0.062,0.0623 -1.5232,2.24057 -2.6329,3.61727 -2.5734,3.19242 -5.8903,6.40871 -9.0489,8.77437 l -0.9143,0.68464 -0.01,3.01984 c -0.012,6.77893 -0.7906,12.67735 -2.5341,19.18895 -5.6673,21.16651 -20.2049,38.88522 -39.0858,47.63856 -8.6989,4.03291 -18.7555,6.39455 -28.2187005,6.6268 -1.1875,0.0292 -2.3961,0.0636 -2.6857,0.0766 -0.2897,0.013 -1.1192,0.0132 -1.8434,5.3e-4 z"
       id="path3195" />
  </g>
</svg>
