<?xml version="1.0" encoding="UTF-8" standalone="no"?>
<svg
   xmlns:dc="http://purl.org/dc/elements/1.1/"
   xmlns:cc="http://creativecommons.org/ns#"
   xmlns:rdf="http://www.w3.org/1999/02/22-rdf-syntax-ns#"
   xmlns:svg="http://www.w3.org/2000/svg"
   xmlns="http://www.w3.org/2000/svg"
   xmlns:sodipodi="http://sodipodi.sourceforge.net/DTD/sodipodi-0.dtd"
   xmlns:inkscape="http://www.inkscape.org/namespaces/inkscape"
   inkscape:version="1.0 (4035a4fb49, 2020-05-01)"
   id="svg3237"
   version="1.1"
   viewBox="0 0 154.99292 154.99292"
   height="154.99292mm"
   width="154.99292mm">
  <defs
     id="defs3231" />
  <sodipodi:namedview
     inkscape:window-maximized="1"
     inkscape:window-y="-8"
     inkscape:window-x="-8"
     inkscape:window-height="1017"
     inkscape:window-width="2560"
     fit-margin-bottom="0"
     fit-margin-right="0"
     fit-margin-left="0"
     fit-margin-top="0"
     showgrid="false"
     inkscape:document-rotation="0"
     inkscape:current-layer="layer1"
     inkscape:document-units="mm"
     inkscape:cy="88.657171"
     inkscape:cx="-454.19999"
     inkscape:zoom="0.35"
     inkscape:pageshadow="2"
     inkscape:pageopacity="0.0"
     borderopacity="1.0"
     bordercolor="#666666"
     pagecolor="#ffffff"
     id="base" />
  <metadata
     id="metadata3234">
    <rdf:RDF>
      <cc:Work
         rdf:about="">
        <dc:format>image/svg+xml</dc:format>
        <dc:type
           rdf:resource="http://purl.org/dc/dcmitype/StillImage" />
        <dc:title></dc:title>
      </cc:Work>
    </rdf:RDF>
  </metadata>
  <g
     transform="translate(-226.00708,-124.70946)"
     id="layer1"
     inkscape:groupmode="layer"
     inkscape:label="Layer 1">
    <path
       style="fill:#ffffff;fill-opacity:1;stroke-width:1"
       d="m 261.45704,255.61039 c -1.92539,-0.37814 -4.32809,-1.66733 -5.92639,-3.17999 -1.27951,-1.21097 -2.35561,-2.89286 -7.0628,-11.0394 -3.05431,-5.28593 -5.62141,-9.72101 -5.7047,-9.85573 -0.092,-0.14979 14.52859,-0.24314 37.63349,-0.24028 l 37.7849,0.005 6.35001,11.02371 c 3.4925,6.06304 6.6798,11.59734 7.083,12.29845 l 0.7329,1.27473 -34.8642,-0.029 c -19.17531,-0.0159 -35.3871,-0.13167 -36.02621,-0.25718 z m 59.91251,-53.36022 c -16.8652,-29.35766 -30.7135,-53.4726 -30.774,-53.58874 -0.06,-0.11615 5.2287,-0.17568 11.7537,-0.13229 11.3869,0.0757 11.9238,0.10168 13.3632,0.64653 1.8188,0.68846 3.4442,1.77853 4.9215,3.30058 0.7727,0.79613 7.3097,11.98318 21.6842,37.10934 11.3179,19.78329 20.8706,36.63494 21.2282,37.44811 0.8833,2.00825 0.9384,6.31125 0.1073,8.37887 -0.5257,1.30789 -10.7307,19.23039 -11.3233,19.88656 -0.226,0.25027 -7.607,-12.39655 -30.9608,-53.04896 z m -68.58631,11.37921 c 0.065,-0.10914 6.162,-10.67594 13.54981,-23.48177 7.38779,-12.80583 13.5768,-23.49524 13.7532,-23.75423 0.2777,-0.40764 2.161,2.71962 14.0223,23.28334 7.5359,13.06482 13.75029,23.84352 13.8097,23.95266 0.059,0.10914 -12.348,0.19844 -27.5721,0.19844 -15.2241,0 -27.62741,-0.0893 -27.56291,-0.19844 z"
       id="path3197" />
  </g>
</svg>
