<?xml version="1.0" encoding="UTF-8" standalone="no"?>
<svg
   xmlns:dc="http://purl.org/dc/elements/1.1/"
   xmlns:cc="http://creativecommons.org/ns#"
   xmlns:rdf="http://www.w3.org/1999/02/22-rdf-syntax-ns#"
   xmlns:svg="http://www.w3.org/2000/svg"
   xmlns="http://www.w3.org/2000/svg"
   xmlns:sodipodi="http://sodipodi.sourceforge.net/DTD/sodipodi-0.dtd"
   xmlns:inkscape="http://www.inkscape.org/namespaces/inkscape"
   inkscape:version="1.0 (4035a4fb49, 2020-05-01)"
   id="svg3237"
   version="1.1"
   viewBox="0 0 154.99292 154.99292"
   height="154.99292mm"
   width="154.99292mm">
  <defs
     id="defs3231" />
  <sodipodi:namedview
     inkscape:window-maximized="1"
     inkscape:window-y="-8"
     inkscape:window-x="-8"
     inkscape:window-height="1017"
     inkscape:window-width="2560"
     fit-margin-bottom="0"
     fit-margin-right="0"
     fit-margin-left="0"
     fit-margin-top="0"
     showgrid="false"
     inkscape:document-rotation="0"
     inkscape:current-layer="layer1"
     inkscape:document-units="mm"
     inkscape:cy="341.47144"
     inkscape:cx="390.04286"
     inkscape:zoom="0.35"
     inkscape:pageshadow="2"
     inkscape:pageopacity="0.0"
     borderopacity="1.0"
     bordercolor="#666666"
     pagecolor="#ffffff"
     id="base" />
  <metadata
     id="metadata3234">
    <rdf:RDF>
      <cc:Work
         rdf:about="">
        <dc:format>image/svg+xml</dc:format>
        <dc:type
           rdf:resource="http://purl.org/dc/dcmitype/StillImage" />
        <dc:title></dc:title>
      </cc:Work>
    </rdf:RDF>
  </metadata>
  <g
     transform="translate(-2.6344924,-57.819016)"
     id="layer1"
     inkscape:groupmode="layer"
     inkscape:label="Layer 1">
    <path
       style="fill:#ffffff;fill-opacity:1;stroke-width:1"
       d="m 48.142934,195.53369 c -8.0605,-1.26939 -14.939402,-5.02525 -20.289901,-11.07834 -3.7732,-4.26856 -6.3554,-9.44485 -7.6665,-15.36788 l -0.5374,-2.42783 v -31.36533 -31.36534 l 0.5374,-2.42783 c 2.9664,-13.401625 12.749601,-23.184834 26.1513,-26.151264 l 2.4278,-0.5374 h 31.365301 31.365396 l 2.4278,0.5374 c 13.3939,2.96472 23.1865,12.757391 26.1513,26.151264 l 0.5374,2.42783 v 31.36534 31.36533 l -0.5374,2.42783 c -2.9534,13.34259 -12.6482,23.07861 -26.0305,26.1412 l -2.3119,0.52908 -30.773598,0.0488 c -24.9628,0.0396 -31.159198,-0.0119 -32.816498,-0.2729 z m 65.128796,-11.19355 c 7.9048,-2.41192 13.6351,-8.19177 15.9106,-16.04832 l 0.5414,-1.8689 v -31.12861 -31.12862 l -0.5434,-1.89375 c -2.2561,-7.862515 -8.1391,-13.737183 -16.0519,-16.029054 l -1.8689,-0.541311 H 80.130934 49.002332 l -1.8689,0.541311 c -7.912799,2.291871 -13.795798,8.166539 -16.0518,16.029054 l -0.543399,1.89375 v 31.12862 31.12861 l 0.541301,1.8689 c 2.098498,7.24507 7.169899,12.80058 14.046298,15.38708 3.576902,1.34542 2.194401,1.29695 35.596901,1.24802 l 30.773597,-0.0451 z M 75.751633,166.19276 c -9.491099,-1.32876 -17.810099,-6.97843 -22.7017,-15.41742 -5.494501,-9.4789 -5.494501,-21.48317 0,-30.96207 4.3414,-7.48984 11.149301,-12.64095 19.6244,-14.84865 0.911299,-0.2374 2.961899,-0.56205 4.5568,-0.72145 12.097602,-1.20903 23.768097,4.85187 29.980897,15.5701 5.4944,9.4789 5.4944,21.48317 0,30.96207 -2.8593,4.93277 -6.7657,8.8143 -11.752897,11.67793 -5.9203,3.39944 -12.8051,4.70583 -19.7075,3.73949 z m 8.5299,-10.90482 c 3.184601,-0.6578 5.9848,-1.99546 8.679402,-4.14615 9.918595,-7.91648 10.088495,-23.21394 0.349099,-31.43421 -8.585099,-7.24605 -21.532501,-6.16238 -28.765802,2.40765 -7.245998,8.5851 -6.162399,21.53249 2.407701,28.7658 2.5058,2.115 5.7521,3.72208 8.872299,4.39224 2.133301,0.4582 6.275202,0.46539 8.457301,0.0147 z m 25.912797,-44.96532 c -2.4781,-0.80925 -4.6689,-3.32839 -5.2275,-6.01099 -0.8801,-4.22609 2.1716,-8.573883 6.4647,-9.210243 3.6116,-0.535371 6.8481,1.22658 8.3884,4.566629 0.5295,1.148294 0.656,1.762534 0.6602,3.207024 0,1.54668 -0.099,1.9985 -0.7709,3.36332 -0.8447,1.7158 -2.0691,2.93004 -3.7989,3.76743 -1.361,0.65886 -4.1887,0.8156 -5.716,0.31683 z"
       id="path3199" />
  </g>
</svg>
